PathFileType	4	(X/Y/Z)	Patient4_TMGait_0pt3_01_left_05.trc.trc
DataRate	CameraRate	NumFrames	NumMarkers	Units	OrigDataRate	OrigDataStartFrame	OrigNumFrames
52.830188679245	52.830188679245	5	33	mm	52.830188679245	106	       141
Frame#	Time	Sacral			L.Shoulder			Chest			R.Shoulder			Neck			R.ASIS			L.ASIS			R.Thigh.Superior			R.Thigh.Lateral			R.Thigh.Inferior			R.Patella			L.Thigh.Superior			L.Thigh.Lateral			L.Thigh.Inferior			L.Patella			L.Shank.Superior			L.Shank.Lateral			L.Shank.Inferior			R.Shank.Superior			R.Shank.Lateral			R.Shank.Inferior			R.Heel			R.Midfoot.Superior			R.Midfoot.Lateral			R.Toe			L.Heel			L.Midfoot.Lateral			L.Midfoot.Superior			L.Toe			L.Elbow			L.Wrist			R.Elbow			R.Wrist			
		X1	Y1	Z1	X2	Y2	Z2	X3	Y3	Z3	X4	Y4	Z4	X5	Y5	Z5	X6	Y6	Z6	X7	Y7	Z7	X8	Y8	Z8	X9	Y9	Z9	X10	Y10	Z10	X11	Y11	Z11	X12	Y12	Z12	X13	Y13	Z13	X14	Y14	Z14	X15	Y15	Z15	X16	Y16	Z16	X17	Y17	Z17	X18	Y18	Z18	X19	Y19	Z19	X20	Y20	Z20	X21	Y21	Z21	X22	Y22	Z22	X23	Y23	Z23	X24	Y24	Z24	X25	Y25	Z25	X26	Y26	Z26	X27	Y27	Z27	X28	Y28	Z28	X29	Y29	Z29	X30	Y30	Z30	X31	Y31	Z31	X32	Y32	Z32	X33	Y33	Z33	

106	10.657500000000	814.646440196035	986.534188932721	592.069214943040	1003.622581756928	1418.933227717053	418.935281699656	1091.682868631078	1352.578443314714	589.293447191691	992.342156276442	1427.536250950450	753.889704932480	977.189416317258	1482.336151473749	576.274573473558	1041.496514594557	933.451739608337	724.042331562036	1040.331797587869	949.375196217148	449.162169012855	1095.259345753684	735.203473023887	686.301957123689	1017.080490179821	616.633970330538	732.112619645428	1101.870569909808	572.503244837288	654.770446210030	1105.127187548740	476.182282098991	656.843279961385	1122.063194381048	763.104232924248	481.361524722349	1081.356821374084	637.666586770065	397.857874593350	1178.782404908815	573.594627834455	469.163086463236	1190.294048149894	483.831084119451	456.809179380260	1123.067113066472	420.350865789572	438.999630131997	981.533773100127	381.096419812543	387.845899164420	973.525016893531	246.162604371588	427.698728418076	1060.465708569800	389.242063650205	654.287641572688	970.801912076564	294.190548224511	705.539341937684	999.821618964032	198.588123313664	639.448449934572	844.990394881624	45.462759145584	596.515702821953	1016.484328080840	97.574774762879	643.469820505205	923.867208392031	37.903773185474	675.074494043683	1132.569206497888	41.595431145101	678.516521059771	786.504009910750	169.651859447136	464.028058128085	841.842729471760	140.645074000237	375.194654298511	947.094322108182	149.859380506265	393.818553275966	1027.196488129924	47.708189250959	343.799417763727	1035.521820331828	1061.266677533388	319.175002474146	1210.240821462073	869.649026450911	326.710703100327	996.614966511767	1084.356683026406	891.069224348877	1188.392931452023	910.736858887304	927.621142857821	
107	10.676428571429	812.855735571354	984.265605828970	594.921778254118	1000.585489258116	1416.281140415691	419.407224180435	1090.626154045627	1350.063749506589	588.785935893980	993.561948633277	1425.341463454767	754.600834063255	976.351191690378	1480.166357073435	576.994091492807	1041.395342212106	931.310432983476	724.252802526369	1037.306059593566	947.992890501126	449.315267132498	1095.408374888718	733.537347060999	685.343901964024	1018.488373219994	614.450755676814	731.697399196574	1102.598319041763	570.797826538754	653.294806198167	1106.043667108204	473.871471972048	655.205076086225	1121.303872641871	764.209889209606	481.376423285396	1082.408618530289	638.084133647930	398.045746912585	1181.609249438037	576.100450982708	469.082586171632	1195.460738112939	487.102842533553	456.627972456621	1130.862897800115	421.830168101403	438.612164211695	991.231232248485	376.357947791894	387.761644145326	989.689613555721	241.106859117575	427.258533542612	1059.926454520891	387.043531288953	653.018205450367	969.196389101524	293.151124104949	704.690745441373	996.224699799316	197.264939224127	638.563695141596	839.347787292949	45.377677913004	596.453095655871	1010.763102363857	97.354747647626	643.057847498657	918.181583181935	37.919854576477	675.119572454929	1126.854077593175	41.564496260554	678.541757087219	806.671155507025	154.495043947118	463.862853001037	863.397192180063	129.644241598751	374.540576293853	968.029787285012	144.701442627445	393.060538289297	1053.839369326633	48.087011157587	341.757379144267	1023.316776964873	1056.960565244476	321.781095112077	1179.874758649417	850.079448293848	328.954801763194	1008.200731349238	1082.118080436786	891.137894588325	1210.451014659721	920.058565748201	922.339895556252	
108	10.695357142857	811.176688508727	982.294676901076	597.748897426667	997.337827082477	1413.841941416057	419.660388408560	1089.618717312986	1347.784048771531	587.881557516036	995.129624086527	1423.395330023726	755.034799973159	975.586436773136	1478.215338392504	577.466442707612	1041.447629844168	929.314900787674	724.134181027901	1034.162701552935	946.789762601840	449.202138374743	1095.326715780675	731.878810064266	684.031640557467	1019.560639210946	612.411420286048	731.098421445433	1102.738112978600	569.126115215772	651.486709917961	1106.240298496851	471.705654335178	653.233719911800	1120.201928232669	765.260334319964	481.228075412411	1082.913537659326	638.507911807492	398.060571114346	1183.637476117719	578.468625002506	468.913282999057	1199.785032204024	490.448263430122	456.369164187466	1138.157710256057	423.430663533297	438.087363177698	1001.101889826943	371.196778190855	387.192827360323	1006.517779431864	235.918812110288	426.444734299893	1058.841768687978	384.997220267882	651.564728782270	967.262361144694	292.144718225909	703.785045072349	992.384533614749	196.002668142860	637.617633116981	833.702218952657	45.262650398102	596.437778095472	1004.993294856914	97.112066363686	642.612540258688	912.493153173556	37.929334583410	675.206762057158	1121.137277240170	41.543135186868	678.544862987968	828.300881942495	139.044122282554	462.959558279774	886.432061778609	118.212370202422	373.400405183156	990.071625216914	139.214590646007	392.034968729420	1081.509759297268	48.373174090125	340.022725092226	1010.541458257292	1053.250090812940	324.043596067967	1148.258775807425	833.097983178349	330.807320118251	1019.966694434421	1080.457798384520	890.732888531689	1232.140161362001	930.982641967577	915.788854496573	
109	10.714285714286	809.671352840707	980.777155735435	600.532783029801	993.920123484079	1411.772672605588	419.693913846929	1088.692766780392	1345.886291053694	586.566618560062	997.083274180096	1421.849974345239	755.159745507564	974.924999913127	1476.623756073503	577.673851498086	1041.646827199638	927.593755185295	723.710311246088	1030.924766654023	945.860160746001	448.863708739945	1094.947816974345	730.304794093925	682.479968439302	1020.118741266501	610.634803735795	730.382411768071	1102.142688622735	567.560769759366	649.484793885575	1105.533376431080	469.775176065345	651.077271901961	1118.759110226620	766.323177969090	480.948458638898	1082.892039909624	639.034803860249	397.887320966459	1184.822867476563	580.723687200923	468.633268263726	1203.184409864297	493.886109453973	456.025723953270	1144.811557921994	425.230752391701	437.453311231066	1011.049186746588	365.876432291245	386.146497915189	1023.739780013333	230.934406729488	425.326862003372	1057.056778966829	383.205478299269	650.038530398473	964.859906577896	291.235489883409	702.893998527010	988.241199439781	194.871451509212	636.680156860600	828.050064150284	45.132272174105	596.475876985825	999.190275843441	96.869756360741	642.176240676978	906.802532939048	37.936949185702	675.332831176490	1115.420252652902	41.522908219231	678.532993947093	851.081465284964	123.878166236736	461.357441097983	910.661891864648	106.862338605451	371.856222138389	1012.894001501967	133.806778452736	390.854560624585	1109.777445107039	48.864326385992	338.803076858148	997.117544779826	1050.322963161413	325.939646562096	1115.884862866287	819.031266469864	332.188436199084	1031.883044002929	1079.548630583487	889.882954610326	1253.253208744902	943.677519250559	908.024338611553	
110	10.733214285714	808.397761330317	979.848032861569	603.246702454638	990.397488016191	1410.211378303165	419.512375931249	1087.884277330410	1344.495270387841	584.844469767405	999.443349591401	1420.836822758300	754.947999226583	974.397706184913	1475.513258187034	577.603134665847	1041.978544288195	926.259390749701	723.012588084208	1027.643743371384	945.296723930041	448.335633275883	1094.210069217692	728.887241957712	680.797686649534	1020.004041519392	609.226991775873	729.610701360820	1100.692701570332	566.169152931618	647.422269175506	1103.774936712716	468.160655805581	648.878699907878	1116.978232898551	767.453410063831	480.549112445156	1082.358254599923	639.753925084358	397.501499877556	1185.124623917947	582.880333995226	468.192733492023	1205.578241925186	497.423189775326	455.569271106917	1150.677598376995	427.288039845146	436.728159423903	1020.940099828174	360.639673852444	384.640520337144	1041.041342684526	226.449628451699	423.989655549997	1054.444902719796	381.758378936154	648.543085997518	961.870885936592	290.484928955140	702.081786402112	983.749195929332	193.935535367458	635.812793749313	822.386908949760	45.001115184749	596.567622210490	993.369640258165	96.649462180109	641.788387083041	901.109280637180	37.946055436908	675.489942324407	1109.703134465989	41.499690287727	678.513030165478	874.616343763972	109.498335910157	459.133425033367	935.729619412284	96.056012181264	370.016403101452	1036.122192238035	128.855295113965	389.645777236760	1138.201456779148	49.855116230753	338.290754505110	983.017127221211	1048.366957648861	327.435289148838	1083.289745085985	808.082808047288	333.040434316653	1043.921044849247	1079.532727161618	888.608551695178	1273.573359691159	958.243877022752	899.125015278280	
